{"title":"Apollo 18 2011 R5 LiNE XviD -MiSTERE","uid":6788601,"size":1501945461,"categoryP":"video","categoryS":"movies","magnet":"?xt=urn:btih:4e20303d2462b06a056abd6db720b946b06dca26&amp;dn=Apollo+18+2011+R5+LiNE+XviD+-MiSTERE&amp;tr=udp%3A%2F%2Ftracker.openbittorrent.com%3A80&amp;tr=udp%3A%2F%2Fopen.demonii.com%3A1337&amp;tr=udp%3A%2F%2Ftracker.coppersurfer.tk%3A6969&amp;tr=udp%3A%2F%2Fexodus.desync.com%3A6969","seeders":6,"leechers":1,"uploader":"LegendET","files":4,"time":1320186673,"description":"[center][img]http://i.imgur.com/OaNEr.jpg[/img]\n\nApollo 18 2011 R5 LiNE XviD - MiSTERE\n &lt;a href=&quot;\nhttp://www.imdb.com/title/tt1772240/&quot; rel=&quot;nofollow&quot; target=&quot;_NEW&quot;&gt;\nhttp://www.imdb.com/title/tt1772240/&lt;/a&gt;\n\nVideo\nID                               : 0\nFormat                           : MPEG-4 Visual\nFormat profile                   : Advanced Simple@L5\nFormat settings, BVOP            : 2\nFormat settings, QPel            : No\nFormat settings, GMC             : No warppoints\nFormat settings, Matrix          : Default (H.263)\nMuxing mode                      : Packed bitstream\nCodec ID                         : XVID\nCodec ID/Hint                    : XviD\nDuration                         : 1h 23mn\nBit rate                         : 2 221 Kbps\nWidth                            : 720 pixels\nHeight                           : 356 pixels\nDisplay aspect ratio             : 2.022\nFrame rate                       : 25.000 fps\nColor space                      : YUV\nChroma subsampling               : 4:2:0\nBit depth                        : 8 bits\nScan type                        : Progressive\nCompression mode                 : Lossy\nBits/(Pixel*Frame)               : 0.347\nStream size                      : 1.29 GiB (94%)\nWriting library                  : XviD 64\n\nAudio\nID                               : 1\nFormat                           : MPEG Audio\nFormat version                   : Version 1\nFormat profile                   : Layer 3\nMode                             : Joint stereo\nMode extension                   : MS Stereo\nCodec ID                         : 55\nCodec ID/Hint                    : MP3\nDuration                         : 1h 23mn\nBit rate mode                    : Constant\nBit rate                         : 128 Kbps\nChannel(s)                       : 2 channels\nSampling rate                    : 44.1 KHz\nCompression mode                 : Lossy\nStream size                      : 76.1 MiB (5%)\nAlignment                        : Split accross interleaves\nInterleave, duration             : 40 ms (1.00 video frame)\n\n\n\nCropped Resized Sharpen and tweaked RGB\nAR changes constanly, \nsupposed to be that way so it is\n\n\n[img]http://i.imgur.com/OzJBr.png[/img]\n[img]http://i.imgur.com/KjGLy.png[/img]\n[img]http://i.imgur.com/FhlpB.png[/img]\n[img]http://i.imgur.com/yltLW.png[/img]\n[img]http://i.imgur.com/XnXlC.png[/img]\n[img]http://i.imgur.com/T9E7x.png[/img]\n[img]http://i.imgur.com/aj5Ed.png[/img]\n[/center]","torrent":{"xt":"urn:btih:4e20303d2462b06a056abd6db720b946b06dca26","amp;dn":"Apollo+18+2011+R5+LiNE+XviD+-MiSTERE","amp;tr":["udp%3A%2F%2Ftracker.openbittorrent.com%3A80","udp%3A%2F%2Fopen.demonii.com%3A1337","udp%3A%2F%2Ftracker.coppersurfer.tk%3A6969","udp%3A%2F%2Fexodus.desync.com%3A6969"],"infoHash":"4e20303d2462b06a056abd6db720b946b06dca26","infoHashBuffer":{"type":"Buffer","data":[78,32,48,61,36,98,176,106,5,106,189,109,183,32,185,70,176,109,202,38]},"announce":[],"urlList":[]}}